<svg width="41" height="42" viewBox="0 0 41 42" fill="none" xmlns="http://www.w3.org/2000/svg">
<path d="M23.0301 37.8202C31.2374 36.5851 37.5305 29.5038 37.5305 20.9519C37.5305 11.53 29.8931 3.89258 20.4712 3.89258C11.0493 3.89258 3.41187 11.53 3.41187 20.9519C3.41187 29.5038 9.70506 36.5868 17.9123 37.8202V26.0697H15.3534C14.6747 26.0697 14.0239 25.8001 13.544 25.3202C13.0641 24.8403 12.7945 24.1895 12.7945 23.5108C12.7945 22.8322 13.0641 22.1813 13.544 21.7014C14.0239 21.2215 14.6747 20.9519 15.3534 20.9519H17.9123V17.54C17.9123 15.9565 18.5414 14.4378 19.6611 13.3181C20.7808 12.1983 22.2995 11.5693 23.8831 11.5693H24.736C25.4147 11.5693 26.0656 11.8389 26.5455 12.3188C27.0253 12.7987 27.2949 13.4495 27.2949 14.1282C27.2949 14.8068 27.0253 15.4577 26.5455 15.9376C26.0656 16.4175 25.4147 16.6871 24.736 16.6871H23.8831C23.6569 16.6871 23.4399 16.7769 23.2799 16.9369C23.12 17.0969 23.0301 17.3138 23.0301 17.54V20.9519H25.589C26.2677 20.9519 26.9185 21.2215 27.3984 21.7014C27.8783 22.1813 28.1479 22.8322 28.1479 23.5108C28.1479 24.1895 27.8783 24.8403 27.3984 25.3202C26.9185 25.8001 26.2677 26.0697 25.589 26.0697H23.0301V37.8202Z" fill="black"/>
</svg>
