<svg width="42" height="43" viewBox="0 0 42 43" fill="none" xmlns="http://www.w3.org/2000/svg">
<path fill-rule="evenodd" clip-rule="evenodd" d="M28.0197 6.22266C30.337 6.22266 32.5595 7.14323 34.1982 8.78187C35.8368 10.4205 36.7574 12.643 36.7574 14.9604V28.9407C36.7574 31.2581 35.8368 33.4806 34.1982 35.1192C32.5595 36.7578 30.337 37.6784 28.0197 37.6784H14.0393C11.7219 37.6784 9.49948 36.7578 7.86084 35.1192C6.2222 33.4806 5.30162 31.2581 5.30162 28.9407V14.9604C5.30162 12.643 6.2222 10.4205 7.86084 8.78187C9.49948 7.14323 11.7219 6.22266 14.0393 6.22266H28.0197ZM28.0197 9.71774H14.0393C12.6489 9.71774 11.3154 10.2701 10.3322 11.2533C9.34905 12.2365 8.7967 13.5699 8.7967 14.9604V28.9407C8.7967 30.3311 9.34905 31.6646 10.3322 32.6478C11.3154 33.631 12.6489 34.1833 14.0393 34.1833H28.0197C29.4101 34.1833 30.7436 33.631 31.7268 32.6478C32.7099 31.6646 33.2623 30.3311 33.2623 28.9407V14.9604C33.2623 13.5699 32.7099 12.2365 31.7268 11.2533C30.7436 10.2701 29.4101 9.71774 28.0197 9.71774ZM21.0295 14.9604C22.8834 14.9604 24.6614 15.6968 25.9723 17.0077C27.2832 18.3186 28.0197 20.0966 28.0197 21.9505C28.0197 23.8044 27.2832 25.5824 25.9723 26.8933C24.6614 28.2042 22.8834 28.9407 21.0295 28.9407C19.1756 28.9407 17.3976 28.2042 16.0867 26.8933C14.7758 25.5824 14.0393 23.8044 14.0393 21.9505C14.0393 20.0966 14.7758 18.3186 16.0867 17.0077C17.3976 15.6968 19.1756 14.9604 21.0295 14.9604ZM21.0295 18.4555C20.1025 18.4555 19.2136 18.8237 18.5581 19.4791C17.9026 20.1346 17.5344 21.0236 17.5344 21.9505C17.5344 22.8775 17.9026 23.7665 18.5581 24.4219C19.2136 25.0774 20.1025 25.4456 21.0295 25.4456C21.9565 25.4456 22.8454 25.0774 23.5009 24.4219C24.1563 23.7665 24.5246 22.8775 24.5246 21.9505C24.5246 21.0236 24.1563 20.1346 23.5009 19.4791C22.8454 18.8237 21.9565 18.4555 21.0295 18.4555ZM28.8934 12.3391C29.3569 12.3391 29.8014 12.5232 30.1291 12.8509C30.4569 13.1786 30.641 13.6231 30.641 14.0866C30.641 14.5501 30.4569 14.9946 30.1291 15.3223C29.8014 15.65 29.3569 15.8341 28.8934 15.8341C28.43 15.8341 27.9855 15.65 27.6577 15.3223C27.33 14.9946 27.1459 14.5501 27.1459 14.0866C27.1459 13.6231 27.33 13.1786 27.6577 12.8509C27.9855 12.5232 28.43 12.3391 28.8934 12.3391Z" fill="black"/>
</svg>
