<svg width="40" height="40" viewBox="0 0 40 40" fill="none" xmlns="http://www.w3.org/2000/svg">
<path fill-rule="evenodd" clip-rule="evenodd" d="M20 3.33301C10.795 3.33301 3.33334 10.7947 3.33334 19.9997C3.33334 23.1497 4.20834 26.0997 5.73 28.613L4.24334 33.6663C4.15798 33.9565 4.15236 34.2643 4.22708 34.5573C4.30179 34.8504 4.45408 35.1179 4.66793 35.3317C4.88179 35.5456 5.1493 35.6979 5.44236 35.7726C5.73542 35.8473 6.0432 35.8417 6.33334 35.7563L11.3867 34.2697C13.9846 35.8413 16.9637 36.6702 20 36.6663C29.205 36.6663 36.6667 29.2047 36.6667 19.9997C36.6667 10.7947 29.205 3.33301 20 3.33301ZM16.23 23.7713C19.6017 27.1413 22.82 27.5863 23.9567 27.628C25.685 27.6913 27.3683 26.3713 28.0233 24.8397C28.1053 24.649 28.135 24.4399 28.1092 24.2339C28.0834 24.028 28.0031 23.8326 27.8767 23.668C26.9633 22.5013 25.7283 21.663 24.5217 20.8297C24.2699 20.6551 23.9601 20.5849 23.6577 20.6341C23.3552 20.6832 23.0836 20.8477 22.9 21.093L21.9 22.618C21.8472 22.6997 21.7652 22.7582 21.6708 22.7817C21.5765 22.8052 21.4767 22.792 21.3917 22.7447C20.7133 22.3563 19.725 21.6963 19.015 20.9863C18.305 20.2763 17.685 19.333 17.3367 18.698C17.2945 18.6171 17.2826 18.5238 17.3031 18.4349C17.3236 18.346 17.3751 18.2673 17.4483 18.213L18.9883 17.0697C19.2087 16.879 19.351 16.6137 19.3879 16.3246C19.4249 16.0355 19.3538 15.7429 19.1883 15.503C18.4417 14.4097 17.5717 13.0197 16.31 12.098C16.1468 11.9808 15.9561 11.9077 15.7564 11.8858C15.5567 11.8639 15.3547 11.8939 15.17 11.973C13.6367 12.6297 12.31 14.313 12.3733 16.0447C12.415 17.1813 12.86 20.3997 16.23 23.7713Z" fill="black"/>
</svg>
